<?xml version="1.0" encoding="UTF-8"?><svg id="Layer_1" xmlns="http://www.w3.org/2000/svg" viewBox="0 0 1062.06 195.83"><defs><style>.cls-1{fill:#fff;stroke-width:0px;}</style></defs><path class="cls-1" d="M224.31,0c-46.18.06-74.57,23.37-115.39,73.95C74.05,119.94,3.87,194.02,0,195.83h66.9c.08-.12,18.22-25.05,39.26-54.24h72.77l-13.49,54.24h43.52L257.64,0h-33.33ZM186.92,109.43h-57.67c8.25-11.55,16.11-22.6,22.69-31.96,29.54-42.07,55.98-38.03,55.98-38.03l-21,69.99Z"/><path class="cls-1" d="M379.28,195.83c-14.82,0-22.94-3.08-28.82-8.95-10.91-10.91-12.87-28.81-2.52-71.05,10.08-41.4,17.06-52.59,25.47-61.27,10.35-10.34,21.25-12.58,37.48-12.58h40.27c15.11,0,23.23,2.8,28.82,8.68,8.96,8.94,9.52,22.1,3.92,47.82h-39.71c2.79-13.99,2.79-19.3.55-21.25-1.68-1.96-4.48-2.24-11.47-2.24h-18.18c-7,0-9.8.55-12.3,3.08-2.52,2.8-5.04,7.83-13.16,40.84-7.83,31.34-7.55,38.61-5.03,41.4,1.95,1.68,5.03,2.24,12.03,2.24h18.74c5.87,0,8.68-.28,11.19-2.8,1.95-1.96,4.48-6.15,8.67-22.66h39.72c-7.54,30.22-11.75,39.16-19.58,46.99-8.4,8.4-17.91,11.75-33.57,11.75h-42.52Z"/><path class="cls-1" d="M799,50.93c-5.86-5.87-13.7-8.95-28.8-8.95h-42.81c-16.22,0-27.13,2.25-37.48,12.59-8.4,8.68-15.38,19.87-25.46,61.27-10.36,42.23-8.39,60.14,2.51,71.05,5.88,5.87,13.72,8.94,28.82,8.94h45.04c15.96,0,25.47-2.52,35.25-12.04,6.44-6.43,11.19-15.09,17.9-39.16h-39.16c-2.79,10.36-4.76,14.55-6.72,16.51-2.8,3.07-5.87,3.35-15.95,3.35h-19.58c-7.27,0-10.63-.85-12.31-2.53-2.8-2.51-3.07-8.94,2.52-33.28h88.96c5.04,0,6.72-1.68,7.83-6.16,11.46-43.36,10.36-60.7-.57-71.61ZM763.2,105.47h-54.56c5.6-22.37,7.84-26.57,10.08-29.1,2.52-2.23,6.15-3.07,14.82-3.07h19.3c7.28,0,10.63.57,12.32,2.25,2.8,2.8,2.51,9.23-1.96,29.93Z"/><path class="cls-1" d="M842.82,144.83c-1.95,8.39-3.57,15.75-1.6,17.98,1.39,1.4,3.35,1.95,8.95,1.95h31.9c5.03,0,7.26-.55,8.94-2.23,1.68-1.68,3.36-3.92,5.31-11.74,1.4-6.16,1.4-8.68-.55-10.35-1.12-1.4-3.08-2.25-6.72-2.8l-41.4-8.39c-12.31-2.24-18.18-5.03-22.38-9.23-6.43-6.44-7-18.19-3.08-35.8,4.19-18.74,9.79-27.14,15.95-33.29,6.71-6.43,15.39-8.96,27.14-8.96h55.94c11.75,0,19.03,2.52,24.06,7.28,6.15,6.43,7.83,17.63,2.51,40.56h-37.47c1.68-7.26,2.51-12.3.28-14.54-1.68-1.4-3.65-2.24-9.79-2.24h-26.31c-5.03,0-7.54.28-9.51,2.24-1.39,1.4-2.79,3.63-4.47,10.36-1.68,6.15-1.41,8.94.27,10.62,1.41,1.4,3.09,2.24,6.72,2.8l41.68,8.11c12.58,2.24,18.18,4.76,22.65,9.23,6.15,6.43,7,18.46,2.8,36.37-4.19,19.31-10.62,28.52-16.22,34.12-7,6.99-15.95,8.96-26.87,8.96h-61.82c-11.74,0-18.74-2.52-23.49-7.28-5.87-5.87-7.06-20.23-.35-43.72h36.93Z"/><path class="cls-1" d="M371.26,42.16c-.08-.41-.59-.46-.59-.46h-30.64c-12.03,0-20.98,6.71-39.17,21.81l5.32-21.54h-42.52l-38.61,153.87h43.07l26.59-105.46c13.71-5.32,22.66-6.72,34.4-6.72h14.37s.66.03.83-.6c0,0,0,0,0,0,7.66-26.91,20.86-36.98,26.34-40.12,0,0,.66-.36.59-.76h0Z"/><path class="cls-1" d="M660.92,9.23c-6.16-6.14-15.67-9.23-34.4-9.23h-103.79l-38.45,154.67c-6.69,26.46-16.91,36.32-21.7,39.63,0,0-.61.4-.48.95.1.38.56.5.8.56h11.16v.02s113.56,0,113.56,0c15.1,0,29.09-2.8,40.01-13.71,6.7-6.72,13.14-14.83,19.3-38.33,8.11-29.65-1.4-42.23-21.83-48.11v-.56c21.83-4.76,35.54-15.38,41.68-41.95,5.03-21.27,3.08-34.96-5.87-43.93ZM602.46,136.24c-3.92,15.11-5.89,19.02-8.4,21.54-2.53,2.25-6.16,3.08-12.88,3.08h-52.86l12.59-49.79h49.5c8.4,0,10.9.84,12.59,2.8,2.8,2.53,3.07,7.83-.55,22.37ZM620.36,56.8c-3.35,13.71-5.87,17.06-8.12,19.29-2.52,2.53-5.31,3.09-12.03,3.09h-51.74l11.18-44.2h48.39c8.4,0,10.91,1.11,12.32,2.52,2.24,2.23,2.79,6.72,0,19.3Z"/><path class="cls-1" d="M990.52,146.02c-1.63,6.72-1.63,10.38.33,12.34,1.63,1.63,3.59,2.48,11.75,2.48h20.69l-6.98,27.42-15.99,3.92c-7.51,1.96-17.04,3.66-26.57,3.66-12.01,0-19.26-3.07-24.61-8.42-6.14-6.14-7.57-16.45-3.07-35.25l19.58-78.32c.46-3.26.72-6.2.72-8.88,0-16.06-7.96-21.67-14.43-23.5,0,0-.39-.13-.33-.52.13-.33.46-.33.46-.33h21.93l6.33-24.61h-.07L984.39,0h42.82l-.59,2.22-9.53,38.38h35.25l-8.09,33.22h-35.51l-18.21,72.19Z"/><path class="cls-1" d="M1062.06,11.09c0,4.96-3.89,8.84-8.95,8.84s-9-3.89-9-8.84,4-8.74,9-8.74,8.95,3.89,8.95,8.74ZM1046.34,11.09c0,3.89,2.88,6.98,6.82,6.98s6.66-3.09,6.66-6.92-2.82-7.03-6.71-7.03-6.77,3.14-6.77,6.98ZM1051.72,15.67h-2.03V6.93c.8-.16,1.92-.27,3.36-.27,1.65,0,2.39.27,3.04.64.48.37.85,1.06.85,1.92,0,.96-.75,1.7-1.81,2.02v.11c.85.32,1.33.96,1.6,2.13.27,1.33.43,1.87.64,2.19h-2.19c-.26-.32-.43-1.12-.69-2.13-.16-.96-.69-1.38-1.81-1.38h-.96v3.52ZM1051.78,10.72h.96c1.12,0,2.03-.37,2.03-1.28,0-.8-.59-1.33-1.87-1.33-.53,0-.91.05-1.12.1v2.51Z"/></svg>